<?xml version="1.0" encoding="utf-8" ?>
<svg xmlns="http://www.w3.org/2000/svg" xmlns:xlink="http://www.w3.org/1999/xlink" width="508" height="492">
	<defs>
		<linearGradient id="gradient_0" gradientUnits="userSpaceOnUse" x1="592.69202" y1="644.22601" x2="601.55402" y2="680.271">
			<stop offset="0" stop-color="#3B3E40" stop-opacity="0.87843138"/>
			<stop offset="1" stop-color="#3B3E42" stop-opacity="0.95294118"/>
		</linearGradient>
	</defs>
	<path fill="url(#gradient_0)" transform="scale(0.662129 0.641209)" d="M655.839 643.049C660.139 642.478 667.302 641.167 671.507 642.408L671.526 643.149C671.732 649.426 675.701 657.497 670.715 662.934C668.326 665.538 664.801 665.74 661.517 665.745L569.619 665.454C548.969 665.399 528.52 664.443 507.952 667.191L508.519 666.202L508.969 666.393C509.099 665.516 508.944 665.921 509.438 665.178L511.125 665.199L511.688 664.612L511.875 664.053L512.25 664.799L515.437 664.803L515.156 664.331C514.132 664.308 513.224 664.404 512.365 663.758L512.625 663.383C514.383 663.662 517.311 664.158 519.002 663.76C519.475 663.649 520.102 663.306 520.582 663.134C520.617 662.785 520.613 662.49 520.767 662.171C522.555 661.674 524.469 661.717 526.312 661.42L527.386 662.216L528.155 662.064L528.348 660.338L655.839 643.049Z"/>
	<path fill="#3B3F41" transform="scale(0.662129 0.641209)" d="M354.447 55.0993L354.972 54.7985C356.135 54.0939 357.064 52.7138 357.94 51.6888C360.016 49.2583 362.657 45.9284 365.72 44.7329C369.421 43.2882 375.496 43.9501 379.48 43.9542C406.552 43.9817 433.253 46.671 459.767 52.1365C518.451 64.233 574.1 92.54 618.192 133.137C624.467 138.915 630.196 145.248 635.949 151.537C648.106 164.828 659.644 179.073 669.545 194.134C675.842 203.712 681.411 213.725 686.656 223.913C705.02 259.584 717.56 298.592 720.566 338.73C721.246 347.821 721.632 356.945 721.363 366.062C721.214 371.087 720.101 376.786 720.607 381.732C717.815 378.284 714.946 375.891 711.012 373.838L708.134 373.275L707.082 372.818C705.531 372.117 704.174 372.162 702.505 372.438C702.024 372.518 701.358 372.701 700.875 372.629C700.102 372.514 700.096 372.099 699.75 371.504L699.901 371.337C700.789 370.036 700.911 367.674 700.531 366.197C699.714 363.029 700.768 360.103 699.347 356.828C698.5 354.875 698.751 352.882 698.539 350.823L697.342 334.646C696.937 328.791 695.947 323.176 696.184 317.303L696.559 316.741L696.373 316.18C696.192 315.447 696.096 315.045 695.713 314.374C694.709 312.616 694.639 310.608 693.448 308.929L686.9 280.929L680.757 262.83C680.709 262.819 680.364 261.954 680.271 261.734L673.276 245.826C663.064 224.775 651.123 204.174 636.853 185.597C617.278 160.115 593.18 138.141 566.864 119.807L525.617 97.2071L489.878 84.1003C481.537 81.8156 473.246 78.9519 464.655 77.781L465.978 65.0108L436.387 59.0724C415.937 55.9169 394.95 54.3095 374.25 54.4097L354.447 55.0993ZM566.864 119.807C593.18 138.141 617.278 160.115 636.853 185.597C651.123 204.174 663.064 224.775 673.276 245.826L680.271 261.734C680.364 261.954 680.709 262.819 680.757 262.83L686.9 280.929L693.448 308.929C694.639 310.608 694.709 312.616 695.713 314.374C696.096 315.045 696.192 315.447 696.373 316.18L696.559 316.741L696.184 317.303C695.947 323.176 696.937 328.791 697.342 334.646L698.539 350.823C698.751 352.882 698.5 354.875 699.347 356.828C700.768 360.103 699.714 363.029 700.531 366.197C700.911 367.674 700.789 370.036 699.901 371.337L699.75 371.504C700.096 372.099 700.102 372.514 700.875 372.629C701.358 372.701 702.024 372.518 702.505 372.438C704.174 372.162 705.531 372.117 707.082 372.818L708.134 373.275L711.012 373.838C710.944 370.832 711.596 367.858 711.509 364.907C710.969 346.634 709.91 328.932 706.464 310.927C698.234 267.929 679.12 225.474 653.797 189.831C647.933 181.577 641.425 173.801 634.909 166.061C624.674 153.901 613.899 143.022 601.65 132.859C597.572 129.476 593.456 125.924 589.074 122.942L588.957 123.533L587.4 123.255L586.919 123.147L586.746 123.958C586.218 124.023 585.715 124.122 585.188 123.962C583.953 123.589 582.718 122.588 582.029 121.52C581.999 120.511 581.835 120.375 582.509 119.645C581.403 118.259 578.739 116.199 577.125 115.419L576.669 115.707L576.956 117.17L576.128 117.768C575.186 117.438 574.399 117.197 573.685 116.456C572.64 115.371 571.894 114.355 570.377 114.134C569.764 113.636 569.346 113.212 568.544 113.094C567.901 113.548 567.495 113.732 566.718 113.789L566.005 113.83L566.024 114.348L564.938 114.538C563.651 114.018 562.983 113.745 562.24 112.545L562.275 111.902C561.572 111.596 560.863 111.307 560.222 110.883C558.634 109.832 556.914 109.404 555.02 109.328L554.809 109.706C555.423 110.165 555.777 110.478 556.568 110.564C557.579 110.674 560.985 113.753 562.125 114.586L562.684 114.957L562.686 115.801L563.434 116.082L563.998 116.356L564.878 116.204C565.586 116.496 565.385 116.34 565.896 116.793C566.514 117.341 567.041 117.901 567.756 118.331C568.28 118.646 568.181 118.684 568.383 119.251C567.69 119.602 567.93 119.528 567.276 119.705L566.864 119.807ZM465.978 65.0108L464.655 77.781C473.246 78.9519 481.537 81.8156 489.878 84.1003L525.617 97.2071L566.864 119.807L567.276 119.705C567.93 119.528 567.69 119.602 568.383 119.251C568.181 118.684 568.28 118.646 567.756 118.331C567.041 117.901 566.514 117.341 565.896 116.793C565.385 116.34 565.586 116.496 564.878 116.204L563.998 116.356L563.434 116.082L562.686 115.801L562.684 114.957L562.125 114.586C560.985 113.753 557.579 110.674 556.568 110.564C555.777 110.478 555.423 110.165 554.809 109.706L555.02 109.328C556.914 109.404 558.634 109.832 560.222 110.883C560.863 111.307 561.572 111.596 562.275 111.902L562.24 112.545C562.983 113.745 563.651 114.018 564.938 114.538L566.024 114.348L566.005 113.83L566.718 113.789C567.495 113.732 567.901 113.548 568.544 113.094C569.346 113.212 569.764 113.636 570.377 114.134C571.894 114.355 572.64 115.371 573.685 116.456C574.399 117.197 575.186 117.438 576.128 117.768L576.956 117.17L576.669 115.707L577.125 115.419C578.739 116.199 581.403 118.259 582.509 119.645C581.835 120.375 581.999 120.511 582.029 121.52C582.718 122.588 583.953 123.589 585.188 123.962C585.715 124.122 586.218 124.023 586.746 123.958L586.919 123.147L587.4 123.255L588.957 123.533L589.074 122.942C564.117 103.467 536.812 87.7483 506.937 77.0876L492.771 72.1845C491.415 70.6604 469.027 65.6583 465.978 65.0108Z"/>
	<defs>
		<linearGradient id="gradient_1" gradientUnits="userSpaceOnUse" x1="525.56299" y1="85.307404" x2="515.41498" y2="103.523">
			<stop offset="0" stop-color="#E74C36" stop-opacity="0.47450981"/>
			<stop offset="1" stop-color="#E84C36" stop-opacity="0.73725492"/>
		</linearGradient>
	</defs>
	<path fill="url(#gradient_1)" transform="scale(0.662129 0.641209)" d="M465.978 65.0108C469.027 65.6583 491.415 70.6604 492.771 72.1845L506.937 77.0876C536.812 87.7483 564.117 103.467 589.074 122.942L588.957 123.533L587.4 123.255L586.919 123.147L586.746 123.958C586.218 124.023 585.715 124.122 585.188 123.962C583.953 123.589 582.718 122.588 582.029 121.52C581.999 120.511 581.835 120.375 582.509 119.645C581.403 118.259 578.739 116.199 577.125 115.419L576.669 115.707L576.956 117.17L576.128 117.768C575.186 117.438 574.399 117.197 573.685 116.456C572.64 115.371 571.894 114.355 570.377 114.134C569.764 113.636 569.346 113.212 568.544 113.094C567.901 113.548 567.495 113.732 566.718 113.789L566.005 113.83L566.024 114.348L564.938 114.538C563.651 114.018 562.983 113.745 562.24 112.545L562.275 111.902C561.572 111.596 560.863 111.307 560.222 110.883C558.634 109.832 556.914 109.404 555.02 109.328L554.809 109.706C555.423 110.165 555.777 110.478 556.568 110.564C557.579 110.674 560.985 113.753 562.125 114.586L562.684 114.957L562.686 115.801L563.434 116.082L563.998 116.356L564.878 116.204C565.586 116.496 565.385 116.34 565.896 116.793C566.514 117.341 567.041 117.901 567.756 118.331C568.28 118.646 568.181 118.684 568.383 119.251C567.69 119.602 567.93 119.528 567.276 119.705L566.864 119.807L525.617 97.2071L489.878 84.1003C481.537 81.8156 473.246 78.9519 464.655 77.781L465.978 65.0108ZM489.878 84.1003L525.617 97.2071C526.377 97.1654 527.068 97.1465 527.809 96.9538L527.404 96.6181C526.714 95.7242 526.614 95.4083 525.562 94.7072L524.625 94.7072L524.003 94.4507C523.448 94.3118 523.129 94.4844 522.578 94.1811C521.741 93.721 519.929 93.0338 518.946 92.8429C517.663 92.5934 516.504 92.1845 515.65 91.1159L515.416 90.7653C515.044 90.2824 514.764 89.991 514.483 89.427L514.272 88.9699L513.75 89.0775L513.188 89.0812L512.811 89.5463C512.83 88.3375 512.882 87.3676 512.388 86.2293C511.566 86.0918 511.691 85.9533 510.938 86.4558C511.046 87.2366 511.009 87.9185 510.941 88.7024C509.781 88.7063 509.785 88.6839 508.875 87.956L508.406 88.3292L507.75 87.956C507.406 87.7 507.509 87.3414 507.48 86.9519C506.795 86.8277 506.534 86.8232 505.877 87.0165L505.312 87.2059L503.519 85.9806L503.25 85.7634C502.745 86.1859 502.746 86.0776 502.125 86.0807C501.574 85.6876 501.272 85.4453 500.58 85.3682C499.951 85.2983 500.219 85.403 499.715 85.2122L496.875 84.2054L498.213 83.5579L498.134 82.9686L497.062 82.8889L496.9 81.2028C496.155 80.4787 496.052 80.5543 495 80.4548C494.219 81.2283 492.413 81.5327 491.25 81.58C490.119 82.3315 487.463 81.8994 486.048 81.8767C486.569 82.2632 486.324 82.1293 486.926 82.3831C487.807 82.7545 488.642 83.0577 489.387 83.676L489.878 84.1003ZM492.771 72.1845C492.834 73.1002 492.836 73.0578 493.498 73.6999L493.069 74.1729C492.621 74.6731 492.284 75.1813 491.946 75.7627C492.062 77.2818 491.833 77.59 493.02 78.6255C494.046 78.8153 495.751 78.4352 496.596 77.7989C497.202 77.3432 497.495 76.9086 497.896 76.2835C498.603 76.318 498.217 76.2098 498.811 76.605C501.301 78.2605 503.609 77.0344 506.376 77.4681L506.937 77.0876L492.771 72.1845Z"/>
	<path fill="#EA4E38" fill-opacity="0.41960785" transform="scale(0.662129 0.641209)" d="M492.771 72.1845L506.937 77.0876L506.376 77.4681C503.609 77.0344 501.301 78.2605 498.811 76.605C498.217 76.2098 498.603 76.318 497.896 76.2835C497.495 76.9086 497.202 77.3432 496.596 77.7989C495.751 78.4352 494.046 78.8153 493.02 78.6255C491.833 77.59 492.062 77.2818 491.946 75.7627C492.284 75.1813 492.621 74.6731 493.069 74.1729L493.498 73.6999C492.836 73.0578 492.834 73.1002 492.771 72.1845Z"/>
	<path fill="#EA4E38" fill-opacity="0.4627451" transform="scale(0.662129 0.641209)" d="M489.878 84.1003L489.387 83.676C488.642 83.0577 487.807 82.7545 486.926 82.3831C486.324 82.1293 486.569 82.2632 486.048 81.8767C487.463 81.8994 490.119 82.3315 491.25 81.58C492.413 81.5327 494.219 81.2283 495 80.4548C496.052 80.5543 496.155 80.4787 496.9 81.2028L497.062 82.8889L498.134 82.9686L498.213 83.5579L496.875 84.2054L499.715 85.2122C500.219 85.403 499.951 85.2983 500.58 85.3682C501.272 85.4453 501.574 85.6876 502.125 86.0807C502.746 86.0776 502.745 86.1859 503.25 85.7634L503.519 85.9806L505.312 87.2059L505.877 87.0165C506.534 86.8232 506.795 86.8277 507.48 86.9519C507.509 87.3414 507.406 87.7 507.75 87.956L508.406 88.3292L508.875 87.956C509.785 88.6839 509.781 88.7063 510.941 88.7024C511.009 87.9185 511.046 87.2366 510.938 86.4558C511.691 85.9533 511.566 86.0918 512.388 86.2293C512.882 87.3676 512.83 88.3375 512.811 89.5463L513.188 89.0812L513.75 89.0775L514.272 88.9699L514.483 89.427C514.764 89.991 515.044 90.2824 515.416 90.7653L515.65 91.1159C516.504 92.1845 517.663 92.5934 518.946 92.8429C519.929 93.0338 521.741 93.721 522.578 94.1811C523.129 94.4844 523.448 94.3118 524.003 94.4507L524.625 94.7072L525.562 94.7072C526.614 95.4083 526.714 95.7242 527.404 96.6181L527.809 96.9538C527.068 97.1465 526.377 97.1654 525.617 97.2071L489.878 84.1003Z"/>
	<defs>
		<linearGradient id="gradient_2" gradientUnits="userSpaceOnUse" x1="608.73401" y1="249.86" x2="676.67798" y2="223.655">
			<stop offset="0" stop-color="#E84C36" stop-opacity="0.66666669"/>
			<stop offset="1" stop-color="#E94E38" stop-opacity="0.9137255"/>
		</linearGradient>
	</defs>
	<path fill="url(#gradient_2)" transform="scale(0.662129 0.641209)" d="M566.864 119.807L567.276 119.705C567.93 119.528 567.69 119.602 568.383 119.251C568.181 118.684 568.28 118.646 567.756 118.331C567.041 117.901 566.514 117.341 565.896 116.793C565.385 116.34 565.586 116.496 564.878 116.204L563.998 116.356L563.434 116.082L562.686 115.801L562.684 114.957L562.125 114.586C560.985 113.753 557.579 110.674 556.568 110.564C555.777 110.478 555.423 110.165 554.809 109.706L555.02 109.328C556.914 109.404 558.634 109.832 560.222 110.883C560.863 111.307 561.572 111.596 562.275 111.902L562.24 112.545C562.983 113.745 563.651 114.018 564.938 114.538L566.024 114.348L566.005 113.83L566.718 113.789C567.495 113.732 567.901 113.548 568.544 113.094C569.346 113.212 569.764 113.636 570.377 114.134C571.894 114.355 572.64 115.371 573.685 116.456C574.399 117.197 575.186 117.438 576.128 117.768L576.956 117.17L576.669 115.707L577.125 115.419C578.739 116.199 581.403 118.259 582.509 119.645C581.835 120.375 581.999 120.511 582.029 121.52C582.718 122.588 583.953 123.589 585.188 123.962C585.715 124.122 586.218 124.023 586.746 123.958L586.919 123.147L587.4 123.255L588.957 123.533L589.074 122.942C593.456 125.924 597.572 129.476 601.65 132.859C613.899 143.022 624.674 153.901 634.909 166.061C641.425 173.801 647.933 181.577 653.797 189.831C679.12 225.474 698.234 267.929 706.464 310.927C709.91 328.932 710.969 346.634 711.509 364.907C711.596 367.858 710.944 370.832 711.012 373.838L708.134 373.275L707.082 372.818C705.531 372.117 704.174 372.162 702.505 372.438C702.024 372.518 701.358 372.701 700.875 372.629C700.102 372.514 700.096 372.099 699.75 371.504L699.901 371.337C700.789 370.036 700.911 367.674 700.531 366.197C699.714 363.029 700.768 360.103 699.347 356.828C698.5 354.875 698.751 352.882 698.539 350.823L697.342 334.646C696.937 328.791 695.947 323.176 696.184 317.303L696.559 316.741L696.373 316.18C696.192 315.447 696.096 315.045 695.713 314.374C694.709 312.616 694.639 310.608 693.448 308.929L686.9 280.929L680.757 262.83C680.709 262.819 680.364 261.954 680.271 261.734L673.276 245.826C663.064 224.775 651.123 204.174 636.853 185.597C617.278 160.115 593.18 138.141 566.864 119.807ZM680.757 262.83L686.9 280.929C687.14 278.933 687.893 277.347 688.673 275.523C687.568 274.383 685.576 272.863 684.869 271.546L684.929 270.881C684.995 269.89 684.724 268.984 683.984 268.282C683.237 267.575 684.034 268.501 683.196 267.446C683.328 266.668 683.334 265.997 683.347 265.209L682.688 264.681C681.945 264.112 681.377 263.525 680.757 262.83Z"/>
	<path fill="#EA4E38" fill-opacity="0.97647059" transform="scale(0.662129 0.641209)" d="M680.757 262.83C681.377 263.525 681.945 264.112 682.688 264.681L683.347 265.209C683.334 265.997 683.328 266.668 683.196 267.446C684.034 268.501 683.237 267.575 683.984 268.282C684.724 268.984 684.995 269.89 684.929 270.881L684.869 271.546C685.576 272.863 687.568 274.383 688.673 275.523C687.893 277.347 687.14 278.933 686.9 280.929L680.757 262.83Z"/>
	<path fill="#F6F8ED" transform="scale(0.662129 0.641209)" d="M354.447 55.0993L374.25 54.4097C394.95 54.3095 415.937 55.9169 436.387 59.0724L465.978 65.0108L464.655 77.781C473.246 78.9519 481.537 81.8156 489.878 84.1003L525.617 97.2071L566.864 119.807C593.18 138.141 617.278 160.115 636.853 185.597C651.123 204.174 663.064 224.775 673.276 245.826L680.271 261.734C680.364 261.954 680.709 262.819 680.757 262.83L686.9 280.929L693.448 308.929C694.639 310.608 694.709 312.616 695.713 314.374C696.096 315.045 696.192 315.447 696.373 316.18L696.559 316.741L696.184 317.303C695.947 323.176 696.937 328.791 697.342 334.646L698.539 350.823C698.751 352.882 698.5 354.875 699.347 356.828C700.768 360.103 699.714 363.029 700.531 366.197C700.911 367.674 700.789 370.036 699.901 371.337L699.75 371.504C700.096 372.099 700.102 372.514 700.875 372.629C701.358 372.701 702.024 372.518 702.505 372.438C704.174 372.162 705.531 372.117 707.082 372.818L708.134 373.275L711.012 373.838C714.946 375.891 717.815 378.284 720.607 381.732C722.675 386.166 723.137 390.147 722.987 394.995C722.708 403.956 721.125 413.036 720.306 421.978L715.72 474.267L713.619 502.84L708.266 567.999L705.295 604.602C704.54 612.786 704.484 621.356 701.581 629.168C699.863 633.79 695.415 638.761 690.806 640.683C684.785 643.195 677.881 642.546 671.507 642.408C667.302 641.167 660.139 642.478 655.839 643.049L528.348 660.338L528.155 662.064L527.386 662.216L526.312 661.42C524.469 661.717 522.555 661.674 520.767 662.171C520.613 662.49 520.617 662.785 520.582 663.134C520.102 663.306 519.475 663.649 519.002 663.76C517.311 664.158 514.383 663.662 512.625 663.383L512.365 663.758C513.224 664.404 514.132 664.308 515.156 664.331L515.437 664.803L512.25 664.799L511.875 664.053L511.688 664.612L511.125 665.199L509.438 665.178C508.944 665.921 509.099 665.516 508.969 666.393L508.519 666.202L507.952 667.191L469.227 672.577C466.503 673.068 463.541 673.197 460.881 673.908C459.962 674.153 459.349 674.75 458.668 675.37L453.746 681.778C447.003 690.063 433.702 692.226 423.626 693.24C414.435 694.165 405.079 694.103 395.85 694.111C380.98 694.124 366.145 693.597 351.36 691.967C331.593 689.788 311.868 685.651 292.656 680.557C273.32 675.431 254.189 669.004 236.104 660.393C211.444 648.652 188.427 633.232 167.305 615.953C153.024 604.27 139.017 591.125 126.994 577.129C120.455 569.516 114.494 561.247 108.611 553.122C76.011 508.099 54.7337 457.06 49.2902 401.502C47.5956 384.207 47.8616 367.099 49.2223 349.792C50.3134 335.912 51.8758 322.135 54.7056 308.489C56.325 300.68 58.536 293.062 60.7821 285.417C72.2838 246.269 91.4519 208.831 117.418 177.27C131.541 160.105 147.252 143.341 164.44 129.202C217.717 85.3743 286.381 61.7117 354.447 55.0993ZM206.699 307.558L188.811 307.268L184.566 327.924C183.681 331.954 181.812 336.813 181.982 340.915C185.318 343.672 189.68 345.6 193.48 347.697L213.581 358.773C215.829 360.006 219.198 361.255 221.041 362.952L218.784 475.828L218.245 487.664L218.248 500.461C218.245 503.156 218.428 505.969 217.987 508.631L217.826 523.229L527.385 521.263L529.144 519.65C530.926 517.709 531.786 515.536 532.044 512.937C532.567 507.649 532.043 502.16 531.98 496.856L531.961 470.692L531.473 414.424L531.221 369.622C532.107 369.068 533.051 368.691 534.01 368.288C536.758 364.122 540.971 360.811 544.84 357.721C552.761 351.395 561.039 346.15 569.362 340.421C568.119 330.073 565.688 319.909 565.431 309.464C565.268 308.603 565.158 308.197 564.562 307.545L473.539 307.252C475.36 311.367 478.152 314.865 480.53 318.653C483.347 323.141 485.739 327.93 487.792 332.811C499.73 361.205 499.924 391.942 488.21 420.405C485.077 428.018 481.403 435.453 477.295 442.587C476.79 443.465 475.44 446.338 474.66 446.663C471.519 443.21 468.011 440.164 464.218 437.445C469.138 432.605 472.992 427.199 476.098 421.028C485.06 403.22 489.76 382.58 487.267 362.646C486.461 356.198 484.69 349.763 482.627 343.616C474.288 318.77 455.385 295.981 431.748 284.339C407.598 272.445 380.234 271.275 354.895 280.031C331.167 288.231 307.52 306.929 296.483 329.817C284.843 353.952 282.762 379.67 290.448 405.337C292.169 411.084 294.838 416.612 296.834 422.287C289.924 413.722 285.012 402.016 282.347 391.397C278.345 375.453 278.961 360.371 283.128 344.578C284.547 339.201 285.942 334.332 288.365 329.294C291.951 321.835 296.826 314.876 301.077 307.773L206.699 307.558ZM218.784 475.828L221.041 362.952C219.198 361.255 215.829 360.006 213.581 358.773L193.48 347.697C189.68 345.6 185.318 343.672 181.982 340.915C181.812 336.813 183.681 331.954 184.566 327.924L188.811 307.268L206.699 307.558L206.487 290.347C206.491 287.654 206.19 284.448 206.844 281.826C207.645 278.614 209.177 275.999 211.371 273.549C213.897 270.728 217.607 268.576 221.337 267.882C225.564 267.095 229.979 267.239 234.264 267.238L250.726 267.238L305.208 267.248C314.469 267.25 323.979 267.731 333.196 267.125L333.655 267.091C334.179 266.15 334.068 264.474 334.169 263.361C334.693 257.567 334.124 251.533 334.946 245.791C335.169 244.233 336.238 243.103 337.464 242.204C338.918 241.137 340.095 240.854 341.86 241.072C342.357 240.825 342.744 240.605 343.312 240.568C345.018 240.457 347.046 240.853 348.77 240.968L356.491 241.132L397.322 241.111C402.871 240.664 437.081 241.701 438.696 240.415C438.108 239.593 437.805 239.666 436.794 239.497C432.535 238.788 427.553 239.463 423.218 239.51L395.243 239.588L395.533 179.684L395.516 165.693C395.509 163.389 395.769 160.681 395.344 158.434C394.931 156.251 393.446 154.094 391.911 152.532C386.946 147.478 381.057 145.504 374.059 145.521L281.364 145.506L257.733 145.255C254.341 145.267 250.447 144.924 247.181 145.841C244.62 146.561 242.252 148.256 240.003 149.63L228.369 156.679C223.157 159.651 217.651 162.157 212.653 165.489C209.93 167.305 207.416 169.436 205.126 171.773C203.451 173.482 201.964 175.379 201.508 177.792C200.993 180.516 201.292 183.733 201.291 186.522L201.285 202.885L201.289 263.29L171.492 263.274C165.499 263.267 158.997 262.649 153.118 263.857C148.198 264.868 143.623 267.096 140.057 270.66C136.714 274.001 134.878 277.649 134.141 282.319C133.576 285.895 133.773 289.638 133.773 293.25L133.755 311.696L133.519 371.456L133.243 405.78L133.204 444.063C140.773 440.502 147.851 437.661 156.225 440.68C163.836 443.423 170.23 449.621 173.581 456.96L174.802 459.781C180.908 458.381 185.138 458.768 190.543 462.128C193.931 464.233 196.957 466.875 200.22 469.161C205.78 473.056 212.281 474.363 218.784 475.828ZM463.708 669.295C461.927 671.169 459.862 673.055 458.668 675.37C459.349 674.75 459.962 674.153 460.881 673.908C463.541 673.197 466.503 673.068 469.227 672.577L507.952 667.191L508.519 666.202L508.969 666.393C509.099 665.516 508.944 665.921 509.438 665.178L511.125 665.199L511.688 664.612L511.875 664.053L512.25 664.799L515.437 664.803L515.156 664.331C514.132 664.308 513.224 664.404 512.365 663.758L512.625 663.383C514.383 663.662 517.311 664.158 519.002 663.76C519.475 663.649 520.102 663.306 520.582 663.134C520.617 662.785 520.613 662.49 520.767 662.171C522.555 661.674 524.469 661.717 526.312 661.42L527.386 662.216L528.155 662.064L528.348 660.338L655.839 643.049L647.544 624.152L681.369 620.931L699.886 402.176L463.708 669.295ZM693.448 308.929C696.968 330.635 697.901 352.061 697.741 374.001L708.134 373.275L707.082 372.818C705.531 372.117 704.174 372.162 702.505 372.438C702.024 372.518 701.358 372.701 700.875 372.629C700.102 372.514 700.096 372.099 699.75 371.504L699.901 371.337C700.789 370.036 700.911 367.674 700.531 366.197C699.714 363.029 700.768 360.103 699.347 356.828C698.5 354.875 698.751 352.882 698.539 350.823L697.342 334.646C696.937 328.791 695.947 323.176 696.184 317.303L696.559 316.741L696.373 316.18C696.192 315.447 696.096 315.045 695.713 314.374C694.709 312.616 694.639 310.608 693.448 308.929Z"/>
	<path fill="#EA4E38" fill-opacity="0.97647059" transform="scale(0.662129 0.641209)" d="M693.448 308.929C694.639 310.608 694.709 312.616 695.713 314.374C696.096 315.045 696.192 315.447 696.373 316.18L696.559 316.741L696.184 317.303C695.947 323.176 696.937 328.791 697.342 334.646L698.539 350.823C698.751 352.882 698.5 354.875 699.347 356.828C700.768 360.103 699.714 363.029 700.531 366.197C700.911 367.674 700.789 370.036 699.901 371.337L699.75 371.504C700.096 372.099 700.102 372.514 700.875 372.629C701.358 372.701 702.024 372.518 702.505 372.438C704.174 372.162 705.531 372.117 707.082 372.818L708.134 373.275L697.741 374.001C697.901 352.061 696.968 330.635 693.448 308.929Z"/>
	<path fill="#3B3F41" transform="scale(0.662129 0.641209)" d="M160.437 464.141C162.719 464.024 162.595 466.498 164.278 467.706C165.41 468.519 167.745 468.989 169.105 469.44C163.595 471.131 158.737 472.498 152.915 472.491L143.101 471.167C146.022 470.669 149.196 469.909 151.848 468.557C154.799 467.054 157.216 465.134 160.437 464.141Z"/>
	<path fill="#EDB976" transform="scale(0.662129 0.641209)" d="M535.955 429.45L536.438 430.455L592.475 430.777L592.531 435.232L536.21 434.819L535.955 429.45Z"/>
	<path fill="#3B3F41" transform="scale(0.662129 0.641209)" d="M535.812 486.49L557.798 486.498L546.391 500.205L536.335 511.748L535.812 486.49Z"/>
	<path fill="#FCE6AE" transform="scale(0.662129 0.641209)" d="M152.563 509.831C149.702 507.807 147.772 503.824 146.155 500.84L176.957 500.743L189.152 500.763C191.802 500.771 194.821 500.553 197.338 501.483L190.163 505.21C189.003 505.789 187.728 506.158 186.768 507.057C180.389 508.14 173.865 509.193 167.39 509.429C162.505 509.606 157.396 508.851 152.563 509.831Z"/>
	<path fill="#3B3F41" transform="scale(0.662129 0.641209)" d="M179.156 469.169C183.001 473.785 187.093 477.681 191.447 481.793L192.75 481.249C196.268 479.793 199.262 477.611 202.908 476.413C206.673 476.989 213.806 476.779 216.725 479.222C217.645 479.991 217.435 480.653 217.507 481.769C216.811 482.857 216.373 483.087 215.062 483.35C212.703 483.823 209.812 483.646 207.375 483.752C197.754 484.167 187.547 483.633 178.275 486.352L169.849 489.336C168.682 489.724 167.018 490.415 165.798 490.494C163.891 490.617 160.708 488.226 158.632 487.794C155.486 487.139 152.109 486.782 148.907 486.605C147.134 486.508 145.073 486.751 143.359 486.357L152.496 482.591L160.783 487.328C162.788 486.533 164.64 484.653 166.229 483.209C170.923 478.945 175.37 474.266 179.156 469.169Z"/>
	<path fill="#EA4E38" transform="scale(0.662129 0.641209)" d="M456.282 262.24L545.286 262.728L581.25 262.882C586.296 262.972 591.687 262.622 596.68 263.303C600.539 263.83 604.367 265.622 607.474 267.929C612.171 271.417 615.16 275.636 616.044 281.485L615.449 281.977C614.296 279.051 613.118 276.504 610.865 274.241C607.038 270.397 601.769 268.59 596.501 267.81C590.664 266.945 584.537 267.272 578.643 267.267L551.213 267.259L456.327 267.258L456.282 262.24Z"/>
	<path fill="#3B3F41" transform="scale(0.662129 0.641209)" d="M562.602 451.026L586.69 450.786C581.365 458.083 574.265 465.078 567.873 471.482L560.407 471.468L536.425 471.177C535.716 464.686 536.276 457.62 536.278 451.065L562.602 451.026Z"/>
	<path fill="#3276B8" transform="scale(0.662129 0.641209)" d="M197.338 501.483C205.298 498.903 213.16 494.369 218.245 487.664L218.248 500.461C218.245 503.156 218.428 505.969 217.987 508.631L217.826 523.229L163.204 523.53L152.563 509.831C157.396 508.851 162.505 509.606 167.39 509.429C173.865 509.193 180.389 508.14 186.768 507.057C187.728 506.158 189.003 505.789 190.163 505.21L197.338 501.483Z"/>
	<path fill="#EDB976" transform="scale(0.662129 0.641209)" d="M197.338 501.483C205.298 498.903 213.16 494.369 218.245 487.664L218.248 500.461C218.245 503.156 218.428 505.969 217.987 508.631L186.768 507.057C187.728 506.158 189.003 505.789 190.163 505.21L197.338 501.483Z"/>
	<path fill="#3B3F41" transform="scale(0.662129 0.641209)" d="M535.899 413.011C538.145 412.373 541.209 412.739 543.557 412.736L560.308 412.734L574.596 412.748C577.182 412.75 580.044 412.501 582.588 412.887C586.256 413.442 590.688 415.04 594.11 416.496C595.61 415.188 597.097 413.682 598.827 412.689C602.64 413.146 606.368 413.317 610.204 413.381C612.538 413.42 615.097 413.263 617.387 413.614C613.561 418.816 609.401 423.585 605.056 428.355C602.487 431.176 600.033 434.144 596.82 436.259L592.531 435.232L592.475 430.777L536.438 430.455L535.955 429.45C535.991 428.32 535.834 427.179 535.731 426.055C535.267 423.984 535.492 421.519 535.519 419.403C535.546 417.317 535.376 415.038 535.899 413.011Z"/>
	<path fill="#EDB976" transform="scale(0.662129 0.641209)" d="M535.899 413.011L535.838 417.481L592.519 417.816L592.505 426.439L535.731 426.055C535.267 423.984 535.492 421.519 535.519 419.403C535.546 417.317 535.376 415.038 535.899 413.011Z"/>
	<path fill="#3B3F41" transform="scale(0.662129 0.641209)" d="M341.86 241.072C342.357 240.825 342.744 240.605 343.312 240.568C345.018 240.457 347.046 240.853 348.77 240.968L356.491 241.132L397.322 241.111C401.257 241.558 405.359 241.338 409.319 241.338L429.958 241.322C432.991 241.317 436.296 241.044 439.297 241.356L439.846 242.15C442.82 242.071 447.487 241.595 449.808 243.841C451.856 245.825 451.243 249.172 451.142 251.766L450.729 270.271C446.154 268.23 441.589 265.948 436.889 264.225C418.781 257.585 398.856 254.357 379.596 256.521C368.107 257.812 356.939 261.023 346.164 265.151L337.345 268.565C336.252 268.989 335.143 269.73 334.004 269.398L333.655 267.091C334.179 266.15 334.068 264.474 334.169 263.361C334.693 257.567 334.124 251.533 334.946 245.791C335.169 244.233 336.238 243.103 337.464 242.204C338.918 241.137 340.095 240.854 341.86 241.072Z"/>
	<path fill="#FBFDFE" transform="scale(0.662129 0.641209)" d="M341.86 241.072C342.357 240.825 342.744 240.605 343.312 240.568C345.018 240.457 347.046 240.853 348.77 240.968L356.491 241.132L397.322 241.111C401.257 241.558 405.359 241.338 409.319 241.338L429.958 241.322C432.991 241.317 436.296 241.044 439.297 241.356L439.846 242.15C431.025 242.783 422.096 242.517 413.255 242.515L371.385 242.509L349.916 242.49C348.249 242.481 344.754 242.837 343.312 242.228C342.876 242.043 342.253 241.385 341.86 241.072Z"/>
	<path fill="#EA4E38" transform="scale(0.662129 0.641209)" d="M565.431 309.464L618.468 309.762L618.467 384.493C593.513 374.852 563.974 374.778 539.359 385.667L535.219 387.529C534.546 382.7 534.991 377.356 534.775 372.438C534.713 371.037 535.043 369.253 534.01 368.288C536.758 364.122 540.971 360.811 544.84 357.721C552.761 351.395 561.039 346.15 569.362 340.421C568.119 330.073 565.688 319.909 565.431 309.464Z"/>
	<path fill="#3B3F41" transform="scale(0.662129 0.641209)" d="M285.035 550.392L502.496 550.106C500.425 552.951 497.727 555.514 495.348 558.122L485.132 569.223C484.593 569.762 483.234 571.433 482.643 571.683C482.291 571.832 480.933 571.716 480.496 571.722L472.741 571.726L434.051 571.698L402.188 571.96L210.189 572.401C200.916 566.604 192.428 558.194 184.643 550.538L285.035 550.392Z"/>
	<path fill="#3B3F41" transform="scale(0.662129 0.641209)" d="M370 92.1125C375.792 91.5408 381.743 91.7893 387.562 91.789C425.295 91.7868 463.515 98.8516 498.76 112.377C534.109 125.943 564.984 147.031 591.659 173.757C600.751 182.867 609.666 192.43 617.494 202.663C629.935 218.925 640.421 237.268 648.722 255.969C654.656 269.339 659.564 283.157 662.899 297.411C667.791 318.321 669.391 340.069 668.894 361.508L668.604 372.578C668.57 374.004 668.781 376.08 668.278 377.387L652.829 377.746C655.472 359.238 655.555 341.639 652.983 323.095C650.96 308.517 647.871 294.172 643.227 280.191C627.437 232.652 596.391 191.048 556.572 160.909C546.331 153.158 535.754 145.963 524.482 139.779C502.73 127.845 479.159 119.292 455.04 113.604C420.061 105.355 384.948 103.127 349.325 108.083C330.348 110.723 311.797 114.937 293.476 120.539C284.129 123.396 274.696 126.436 265.701 130.278C223.241 148.414 185.605 178.586 157.865 215.424C148.358 228.048 139.583 241.231 132.634 255.452C123.448 274.248 117.385 294.329 113.31 314.807C106.798 347.536 105.704 380.367 110.38 413.411C113.823 437.974 121.858 462.226 133.312 484.209C139.014 495.152 145.756 505.552 152.712 515.729C158.997 524.923 165.437 534.097 172.643 542.598C179.969 551.242 188.163 559.229 196.577 566.804C210.875 579.675 226.203 590.924 243.066 600.213C261.95 610.615 282.549 618.171 303.3 623.871C326.155 630.149 349.919 634.312 373.606 635.519C392.037 636.458 410.111 635.438 428.496 634.48C423.724 640.948 416.807 646.579 411.118 652.242C393.469 652.163 376.098 652.812 358.448 651.238C345.572 650.09 332.855 647.658 320.234 644.929C306.141 641.882 292.087 638.285 278.509 633.406C245.613 621.587 214.74 602.901 188.535 579.814C176.999 569.651 166.723 558.318 156.968 546.462C134.685 519.38 116.561 488.45 105.602 455.051C98.1262 432.267 93.9863 408.373 92.5362 384.459C91.4937 367.267 92.8137 350.073 95.2028 333.056C102.489 281.159 123.149 231.413 158.13 192.009C171.328 177.142 186.017 163.679 201.708 151.496C208.234 146.43 214.822 141.344 221.812 136.929C265.632 109.253 318.609 95.1814 370 92.1125Z"/>
	<path fill="#EA4E38" transform="scale(0.662129 0.641209)" d="M463.708 669.295L699.886 402.176L681.369 620.931L647.544 624.152L655.839 643.049L528.348 660.338L528.155 662.064L527.386 662.216L526.312 661.42C524.469 661.717 522.555 661.674 520.767 662.171C520.613 662.49 520.617 662.785 520.582 663.134C520.102 663.306 519.475 663.649 519.002 663.76C517.311 664.158 514.383 663.662 512.625 663.383L512.365 663.758C513.224 664.404 514.132 664.308 515.156 664.331L515.437 664.803L512.25 664.799L511.875 664.053L511.688 664.612L511.125 665.199L509.438 665.178C508.944 665.921 509.099 665.516 508.969 666.393L508.519 666.202L507.952 667.191L469.227 672.577C466.503 673.068 463.541 673.197 460.881 673.908C459.962 674.153 459.349 674.75 458.668 675.37C459.862 673.055 461.927 671.169 463.708 669.295ZM463.708 669.295C461.927 671.169 459.862 673.055 458.668 675.37C459.349 674.75 459.962 674.153 460.881 673.908C463.541 673.197 466.503 673.068 469.227 672.577L507.952 667.191L508.519 666.202L508.969 666.393C509.099 665.516 508.944 665.921 509.438 665.178L511.125 665.199L511.688 664.612L511.875 664.053L512.25 664.799L515.437 664.803L515.156 664.331C514.132 664.308 513.224 664.404 512.365 663.758L512.625 663.383C514.383 663.662 517.311 664.158 519.002 663.76C519.475 663.649 520.102 663.306 520.582 663.134C520.617 662.785 520.613 662.49 520.767 662.171C522.555 661.674 524.469 661.717 526.312 661.42L527.386 662.216L528.155 662.064L528.348 660.338L463.708 669.295Z"/>
	<defs>
		<linearGradient id="gradient_3" gradientUnits="userSpaceOnUse" x1="489.19601" y1="671.44299" x2="487.228" y2="663.93701">
			<stop offset="0" stop-color="#3D3F41" stop-opacity="0.95686275"/>
			<stop offset="1" stop-color="#3D4147"/>
		</linearGradient>
	</defs>
	<path fill="url(#gradient_3)" transform="scale(0.662129 0.641209)" d="M463.708 669.295L528.348 660.338L528.155 662.064L527.386 662.216L526.312 661.42C524.469 661.717 522.555 661.674 520.767 662.171C520.613 662.49 520.617 662.785 520.582 663.134C520.102 663.306 519.475 663.649 519.002 663.76C517.311 664.158 514.383 663.662 512.625 663.383L512.365 663.758C513.224 664.404 514.132 664.308 515.156 664.331L515.437 664.803L512.25 664.799L511.875 664.053L511.688 664.612L511.125 665.199L509.438 665.178C508.944 665.921 509.099 665.516 508.969 666.393L508.519 666.202L507.952 667.191L469.227 672.577C466.503 673.068 463.541 673.197 460.881 673.908C459.962 674.153 459.349 674.75 458.668 675.37C459.862 673.055 461.927 671.169 463.708 669.295Z"/>
	<path fill="#EA4E38" fill-opacity="0.97647059" transform="scale(0.662129 0.641209)" d="M218.784 475.828C212.281 474.363 205.78 473.056 200.22 469.161C196.957 466.875 193.931 464.233 190.543 462.128C185.138 458.768 180.908 458.381 174.802 459.781L173.581 456.96C170.23 449.621 163.836 443.423 156.225 440.68C147.851 437.661 140.773 440.502 133.204 444.063L133.243 405.78L133.519 371.456L133.755 311.696L133.773 293.25C133.773 289.638 133.576 285.895 134.141 282.319C134.878 277.649 136.714 274.001 140.057 270.66C143.623 267.096 148.198 264.868 153.118 263.857C158.997 262.649 165.499 263.267 171.492 263.274L201.289 263.29L201.285 202.885L201.291 186.522C201.292 183.733 200.993 180.516 201.508 177.792C201.964 175.379 203.451 173.482 205.126 171.773C207.416 169.436 209.93 167.305 212.653 165.489C217.651 162.157 223.157 159.651 228.369 156.679L240.003 149.63C242.252 148.256 244.62 146.561 247.181 145.841C250.447 144.924 254.341 145.267 257.733 145.255L281.364 145.506L374.059 145.521C381.057 145.504 386.946 147.478 391.911 152.532C393.446 154.094 394.931 156.251 395.344 158.434C395.769 160.681 395.509 163.389 395.516 165.693L395.533 179.684L395.243 239.588L423.218 239.51C427.553 239.463 432.535 238.788 436.794 239.497C437.805 239.666 438.108 239.593 438.696 240.415C437.081 241.701 402.871 240.664 397.322 241.111L356.491 241.132L348.77 240.968C347.046 240.853 345.018 240.457 343.312 240.568C342.744 240.605 342.357 240.825 341.86 241.072C340.095 240.854 338.918 241.137 337.464 242.204C336.238 243.103 335.169 244.233 334.946 245.791C334.124 251.533 334.693 257.567 334.169 263.361C334.068 264.474 334.179 266.15 333.655 267.091L333.196 267.125C323.979 267.731 314.469 267.25 305.208 267.248L250.726 267.238L234.264 267.238C229.979 267.239 225.564 267.095 221.337 267.882C217.607 268.576 213.897 270.728 211.371 273.549C209.177 275.999 207.645 278.614 206.844 281.826C206.19 284.448 206.491 287.654 206.487 290.347L206.699 307.558L188.811 307.268L184.566 327.924C183.681 331.954 181.812 336.813 181.982 340.915C185.318 343.672 189.68 345.6 193.48 347.697L213.581 358.773C215.829 360.006 219.198 361.255 221.041 362.952L218.784 475.828Z"/>
	<path fill="#F6F8ED" transform="scale(0.662129 0.641209)" d="M272.312 202.996C275.775 202.765 279.15 203.443 282.324 204.809C288.681 207.546 291.663 212.553 294.108 218.721C297.591 218.671 301.649 218.238 304.899 219.665C307.348 220.741 309.374 223.265 310.288 225.742C310.91 227.428 311.151 230.289 310.203 231.921C309.291 233.492 307.374 234.689 305.812 235.54C300.932 238.2 295.447 239.969 290.153 241.614L279 244.234C273.536 245.085 267.901 244.67 263.124 241.693C258.349 238.716 254.794 233.481 253.688 227.973C252.634 222.727 253.906 216.625 256.935 212.202C260.721 206.675 265.881 204.207 272.312 202.996Z"/>
	<path fill="#3B3F41" transform="scale(0.662129 0.641209)" d="M206.699 307.558L301.077 307.773C296.826 314.876 291.951 321.835 288.365 329.294C285.942 334.332 284.547 339.201 283.128 344.578C278.961 360.371 278.345 375.453 282.347 391.397C285.012 402.016 289.924 413.722 296.834 422.287C294.838 416.612 292.169 411.084 290.448 405.337C282.762 379.67 284.843 353.952 296.483 329.817C307.52 306.929 331.167 288.231 354.895 280.031C380.234 271.275 407.598 272.445 431.748 284.339C455.385 295.981 474.288 318.77 482.627 343.616C484.69 349.763 486.461 356.198 487.267 362.646C489.76 382.58 485.06 403.22 476.098 421.028C472.992 427.199 469.138 432.605 464.218 437.445C468.011 440.164 471.519 443.21 474.66 446.663C475.44 446.338 476.79 443.465 477.295 442.587C481.403 435.453 485.077 428.018 488.21 420.405C499.924 391.942 499.73 361.205 487.792 332.811C485.739 327.93 483.347 323.141 480.53 318.653C478.152 314.865 475.36 311.367 473.539 307.252L564.562 307.545C565.158 308.197 565.268 308.603 565.431 309.464C565.688 319.909 568.119 330.073 569.362 340.421C561.039 346.15 552.761 351.395 544.84 357.721C540.971 360.811 536.758 364.122 534.01 368.288C533.051 368.691 532.107 369.068 531.221 369.622L531.473 414.424L531.961 470.692L531.98 496.856C532.043 502.16 532.567 507.649 532.044 512.937C531.786 515.536 530.926 517.709 529.144 519.65L527.385 521.263L217.826 523.229L217.987 508.631C218.428 505.969 218.245 503.156 218.248 500.461L218.245 487.664L218.784 475.828L221.041 362.952C219.198 361.255 215.829 360.006 213.581 358.773L193.48 347.697C189.68 345.6 185.318 343.672 181.982 340.915C181.812 336.813 183.681 331.954 184.566 327.924L188.811 307.268L206.699 307.558ZM385.744 287.092C380.885 287.456 375.984 287.79 371.206 288.8C352.257 292.805 336.023 302.866 323.45 317.514C308.868 334.503 301.875 355.671 303.535 377.968C305.002 397.664 317.121 417.67 331.922 430.292C347.991 443.996 368.379 452.301 389.662 451.717C412.699 450.391 433.979 440.798 449.521 423.554C464.148 407.324 472.596 384.411 471.243 362.498C469.935 341.295 459.491 321.347 443.622 307.384C428.608 294.173 406.302 285.62 386.144 287.053L385.744 287.092Z"/>
	<path fill="#645F43" transform="scale(0.662129 0.641209)" d="M224.109 442.762C224.694 442.641 224.504 442.613 225.018 442.721C231.727 444.13 239.889 443.299 246.788 443.302L288.18 443.295L288.314 488.145L287.438 488.776C284.826 489.182 282.066 489.027 279.428 489.03L266.795 489.037L223.213 489.028L224.109 442.762Z"/>
	<path fill="#F6F8ED" transform="scale(0.662129 0.641209)" d="M385.744 287.092L386.144 287.053C406.302 285.62 428.608 294.173 443.622 307.384C459.491 321.347 469.935 341.295 471.243 362.498C472.596 384.411 464.148 407.324 449.521 423.554C433.979 440.798 412.699 450.391 389.662 451.717C368.379 452.301 347.991 443.996 331.922 430.292C317.121 417.67 305.002 397.664 303.535 377.968C301.875 355.671 308.868 334.503 323.45 317.514C336.023 302.866 352.257 292.805 371.206 288.8C375.984 287.79 380.885 287.456 385.744 287.092ZM380.224 298.695C374.804 299.394 369.497 300.202 364.25 301.798C349.58 306.26 336.735 315.65 327.408 327.757C316.186 342.325 310.573 360.812 312.947 379.165C315.465 398.629 326.999 416.018 342.398 427.832C357.542 439.45 375.418 443.306 394.118 442.571C399.124 441.659 404.133 440.733 408.988 439.171C425.152 433.97 438.818 424.162 448.445 410.131C458.775 395.076 462.892 376.325 459.412 358.407C455.776 339.682 444.406 322.64 428.567 312.023C417.294 304.467 405.107 299.875 391.554 298.749C388.018 298.456 383.742 298.176 380.224 298.695Z"/>
	<path fill="#3B3F41" transform="scale(0.662129 0.641209)" d="M380.224 298.695C383.742 298.176 388.018 298.456 391.554 298.749C405.107 299.875 417.294 304.467 428.567 312.023C444.406 322.64 455.776 339.682 459.412 358.407C462.892 376.325 458.775 395.076 448.445 410.131C438.818 424.162 425.152 433.97 408.988 439.171C404.133 440.733 399.124 441.659 394.118 442.571C375.418 443.306 357.542 439.45 342.398 427.832C326.999 416.018 315.465 398.629 312.947 379.165C310.573 360.812 316.186 342.325 327.408 327.757C336.735 315.65 349.58 306.26 364.25 301.798C369.497 300.202 374.804 299.394 380.224 298.695ZM418.104 340.88L417.381 341.251C408.45 363.71 390.393 383.755 370.012 396.45C363.946 400.228 357.462 403.103 351.085 406.293L352.949 407.803L352.326 408.629C352.444 409.421 352.465 409.405 353.066 409.944L352.502 410.321L352.188 410.803L352.691 411.257C352.72 412.212 352.719 413.08 352.942 414.015L352.316 414.445C352.698 415.381 353.325 415.525 354.168 416.027L354.456 416.319C355.308 417.172 355.948 417.68 357.021 418.213L357.586 418.502C358.283 418.834 357.932 418.667 358.625 418.866C361.59 419.717 362.89 422.316 366.202 420.706C366.794 420.417 367.204 420.335 367.85 420.255C368.701 420.936 369.115 421.363 369.191 422.515C369.223 422.996 369.175 423.248 369.12 423.701C367.211 424.564 364.548 423.171 362.248 423.638L360.979 423.801L360.375 424.388L359.753 424.131L358.5 424.104C358.073 424.658 358.208 424.344 358.106 425.05C372.957 432.328 389.88 435.087 405.845 429.642C406.483 429.424 407.089 429.195 407.691 428.888L407.899 414.129C413.623 410.237 418.743 406.472 423.133 401.029C430.664 391.693 434.752 380.325 433.458 368.282C432.395 358.386 425.817 347.102 418.104 340.88ZM362.749 312.921C348.338 317.959 334.678 331.521 328.059 345.114C321.328 358.939 320.121 373.729 325.272 388.329C330.988 404.532 343.073 417.124 358.106 425.05C358.208 424.344 358.073 424.658 358.5 424.104L359.753 424.131L360.375 424.388L360.979 423.801L362.248 423.638C364.548 423.171 367.211 424.564 369.12 423.701C369.175 423.248 369.223 422.996 369.191 422.515C369.115 421.363 368.701 420.936 367.85 420.255C367.204 420.335 366.794 420.417 366.202 420.706C362.89 422.316 361.59 419.717 358.625 418.866C357.932 418.667 358.283 418.834 357.586 418.502L357.021 418.213C355.948 417.68 355.308 417.172 354.456 416.319L354.168 416.027C353.325 415.525 352.698 415.381 352.316 414.445L352.942 414.015C352.719 413.08 352.72 412.212 352.691 411.257L352.188 410.803L352.502 410.321L353.066 409.944C352.465 409.405 352.444 409.421 352.326 408.629L352.949 407.803L351.085 406.293C343.801 398.932 339.568 384.224 339.463 374.065C339.34 362.08 344.217 348.888 352.602 340.279C360.14 332.54 370.793 327.827 381.618 327.731C392.24 327.638 401.873 331.132 410.845 336.678C413.036 338.033 415.544 339.433 417.381 341.251L418.104 340.88C418.038 340.233 417.972 339.667 418.099 339.024C419.449 332.226 417.853 324.679 418.972 317.696C413.988 313.407 406.919 310.888 400.592 309.436C390.894 307.038 380.613 307.521 370.986 310.011C368.363 310.689 365.093 311.547 362.749 312.921Z"/>
	<path fill="#F6F8ED" transform="scale(0.662129 0.641209)" d="M418.104 340.88C418.038 340.233 417.972 339.667 418.099 339.024C419.449 332.226 417.853 324.679 418.972 317.696C434.619 328.9 445.855 343.104 448.99 362.468C451.499 377.972 446.603 394.139 437.385 406.624C430.181 416.382 418.719 424.027 407.691 428.888L407.899 414.129C413.623 410.237 418.743 406.472 423.133 401.029C430.664 391.693 434.752 380.325 433.458 368.282C432.395 358.386 425.817 347.102 418.104 340.88Z"/>
	<defs>
		<linearGradient id="gradient_4" gradientUnits="userSpaceOnUse" x1="401.82101" y1="383.70099" x2="338.20801" y2="331.15302">
			<stop offset="0" stop-color="#E84D36" stop-opacity="0.73333335"/>
			<stop offset="1" stop-color="#EA4F39"/>
		</linearGradient>
	</defs>
	<path fill="url(#gradient_4)" transform="scale(0.662129 0.641209)" d="M362.749 312.921C365.093 311.547 368.363 310.689 370.986 310.011C380.613 307.521 390.894 307.038 400.592 309.436C406.919 310.888 413.988 313.407 418.972 317.696C417.853 324.679 419.449 332.226 418.099 339.024C417.972 339.667 418.038 340.233 418.104 340.88L417.381 341.251C415.544 339.433 413.036 338.033 410.845 336.678C401.873 331.132 392.24 327.638 381.618 327.731C370.793 327.827 360.14 332.54 352.602 340.279C344.217 348.888 339.34 362.08 339.463 374.065C339.568 384.224 343.801 398.932 351.085 406.293L352.949 407.803L352.326 408.629C352.444 409.421 352.465 409.405 353.066 409.944L352.502 410.321L352.188 410.803L352.691 411.257C352.72 412.212 352.719 413.08 352.942 414.015L352.316 414.445C352.698 415.381 353.325 415.525 354.168 416.027L354.456 416.319C355.308 417.172 355.948 417.68 357.021 418.213L357.586 418.502C358.283 418.834 357.932 418.667 358.625 418.866C361.59 419.717 362.89 422.316 366.202 420.706C366.794 420.417 367.204 420.335 367.85 420.255C368.701 420.936 369.115 421.363 369.191 422.515C369.223 422.996 369.175 423.248 369.12 423.701C367.211 424.564 364.548 423.171 362.248 423.638L360.979 423.801L360.375 424.388L359.753 424.131L358.5 424.104C358.073 424.658 358.208 424.344 358.106 425.05C343.073 417.124 330.988 404.532 325.272 388.329C320.121 373.729 321.328 358.939 328.059 345.114C334.678 331.521 348.338 317.959 362.749 312.921ZM362.749 312.921L363.092 313.249L365.438 312.986L365.812 313.928L365.812 314.437C367.393 314.034 368.951 313.879 370.577 314.079C371.412 314.181 372.754 314.613 373.54 314.55C373.73 314.535 374.798 313.702 374.998 313.551C382.407 307.959 392.928 313.828 400.592 309.436C390.894 307.038 380.613 307.521 370.986 310.011C368.363 310.689 365.093 311.547 362.749 312.921Z"/>
	<path fill="#EA4E38" fill-opacity="0.78431374" transform="scale(0.662129 0.641209)" d="M362.749 312.921C365.093 311.547 368.363 310.689 370.986 310.011C380.613 307.521 390.894 307.038 400.592 309.436C392.928 313.828 382.407 307.959 374.998 313.551C374.798 313.702 373.73 314.535 373.54 314.55C372.754 314.613 371.412 314.181 370.577 314.079C368.951 313.879 367.393 314.034 365.812 314.437L365.812 313.928L365.438 312.986L363.092 313.249L362.749 312.921Z"/>
	<path fill="#3B3F41" transform="scale(0.662129 0.641209)" d="M418.104 340.88C425.817 347.102 432.395 358.386 433.458 368.282C434.752 380.325 430.664 391.693 423.133 401.029C418.743 406.472 413.623 410.237 407.899 414.129L407.691 428.888C407.089 429.195 406.483 429.424 405.845 429.642C389.88 435.087 372.957 432.328 358.106 425.05C358.208 424.344 358.073 424.658 358.5 424.104L359.753 424.131L360.375 424.388L360.979 423.801L362.248 423.638C364.548 423.171 367.211 424.564 369.12 423.701C369.175 423.248 369.223 422.996 369.191 422.515C369.115 421.363 368.701 420.936 367.85 420.255C367.204 420.335 366.794 420.417 366.202 420.706C362.89 422.316 361.59 419.717 358.625 418.866C357.932 418.667 358.283 418.834 357.586 418.502L357.021 418.213C355.948 417.68 355.308 417.172 354.456 416.319L354.168 416.027C353.325 415.525 352.698 415.381 352.316 414.445L352.942 414.015C352.719 413.08 352.72 412.212 352.691 411.257L352.188 410.803L352.502 410.321L353.066 409.944C352.465 409.405 352.444 409.421 352.326 408.629L352.949 407.803L351.085 406.293C357.462 403.103 363.946 400.228 370.012 396.45C390.393 383.755 408.45 363.71 417.381 341.251L418.104 340.88ZM352.949 407.803L352.326 408.629C352.444 409.421 352.465 409.405 353.066 409.944L352.502 410.321L352.188 410.803L352.691 411.257C352.72 412.212 352.719 413.08 352.942 414.015L352.316 414.445C352.698 415.381 353.325 415.525 354.168 416.027L354.456 416.319C355.308 417.172 355.948 417.68 357.021 418.213L357.586 418.502C358.283 418.834 357.932 418.667 358.625 418.866C361.59 419.717 362.89 422.316 366.202 420.706C366.794 420.417 367.204 420.335 367.85 420.255C368.701 420.936 369.115 421.363 369.191 422.515C369.223 422.996 369.175 423.248 369.12 423.701C367.211 424.564 364.548 423.171 362.248 423.638L360.979 423.801L360.375 424.388L359.753 424.131L358.5 424.104C358.073 424.658 358.208 424.344 358.106 425.05C372.957 432.328 389.88 435.087 405.845 429.642C406.483 429.424 407.089 429.195 407.691 428.888L407.899 414.129L399.197 417.263C386.636 421.786 373.744 419.06 362.02 413.496L352.949 407.803Z"/>
	<path fill="#EA4E38" fill-opacity="0.67058825" transform="scale(0.662129 0.641209)" d="M352.949 407.803L362.02 413.496C373.744 419.06 386.636 421.786 399.197 417.263L407.899 414.129L407.691 428.888C407.089 429.195 406.483 429.424 405.845 429.642C389.88 435.087 372.957 432.328 358.106 425.05C358.208 424.344 358.073 424.658 358.5 424.104L359.753 424.131L360.375 424.388L360.979 423.801L362.248 423.638C364.548 423.171 367.211 424.564 369.12 423.701C369.175 423.248 369.223 422.996 369.191 422.515C369.115 421.363 368.701 420.936 367.85 420.255C367.204 420.335 366.794 420.417 366.202 420.706C362.89 422.316 361.59 419.717 358.625 418.866C357.932 418.667 358.283 418.834 357.586 418.502L357.021 418.213C355.948 417.68 355.308 417.172 354.456 416.319L354.168 416.027C353.325 415.525 352.698 415.381 352.316 414.445L352.942 414.015C352.719 413.08 352.72 412.212 352.691 411.257L352.188 410.803L352.502 410.321L353.066 409.944C352.465 409.405 352.444 409.421 352.326 408.629L352.949 407.803Z"/>
	<path fill="#F6F8ED" transform="scale(0.662129 0.641209)" d="M351.085 406.293C343.801 398.932 339.568 384.224 339.463 374.065C339.34 362.08 344.217 348.888 352.602 340.279C360.14 332.54 370.793 327.827 381.618 327.731C392.24 327.638 401.873 331.132 410.845 336.678C413.036 338.033 415.544 339.433 417.381 341.251C408.45 363.71 390.393 383.755 370.012 396.45C363.946 400.228 357.462 403.103 351.085 406.293Z"/>
</svg>
